Coordinates
version=1
nRows=54
nColumns=12
inDegrees=yes

Units are S.I. units (second, meters, Newtons, ...)
Angles are in degrees

endheader
time	SC_y	SC_z	SC_x	AC_y	AC_z	AC_x	GH_y	GH_z	GH_yy	EL_x	PS_y
       0.0              -34.26          10.62          9.041          42.94          5.953          8.425         -146.0          85.58          136.4          72.46          152.1
    0.0305              -34.26          10.62          9.043          42.94          5.951          8.425         -146.0          85.56          136.4          72.47          152.1
     0.061              -34.26          10.62          9.045          42.93          5.948          8.426         -145.9          85.55          136.4          72.47          152.1
   0.09151              -34.26          10.62          9.047          42.93          5.945          8.427         -145.9          85.53          136.4          72.48          152.1
     0.122              -34.26          10.62          9.049          42.93          5.942          8.427         -145.9          85.51          136.4          72.49          152.1
    0.1525              -34.26          10.62          9.051          42.93          5.939          8.428         -145.9           85.5          136.3           72.5          152.1
     0.183              -34.26          10.62          9.053          42.93          5.935          8.429         -145.9          85.48          136.3          72.51          152.1
    0.2135              -34.26          10.62          9.056          42.93          5.931          8.429         -145.9          85.45          136.3          72.52          152.1
     0.244              -34.26          10.62          9.058          42.92          5.927           8.43         -145.9          85.43          136.3          72.53          152.1
    0.2745              -34.26          10.62          9.061          42.92          5.923          8.431         -145.9          85.41          136.3          72.54          152.0
     0.305              -34.26          10.62          9.064          42.92          5.918          8.432         -145.9          85.38          136.3          72.56          152.0
    0.3355              -34.26          10.62          9.067          42.92          5.913          8.433         -145.8          85.35          136.3          72.57          152.0
     0.366              -34.26          10.62          9.071          42.91          5.908          8.434         -145.8          85.32          136.2          72.58          152.0
    0.3965              -34.26          10.62          9.074          42.91          5.902          8.436         -145.8          85.29          136.2           72.6          152.0
     0.427              -34.26          10.62          9.079          42.91          5.896          8.437         -145.8          85.26          136.2          72.62          152.0
    0.4575              -34.26          10.62          9.083          42.91          5.889          8.438         -145.8          85.22          136.2          72.64          152.0
     0.488              -34.26          10.62          9.088           42.9          5.881           8.44         -145.7          85.18          136.1          72.66          152.0
    0.5185              -34.26          10.63          9.093           42.9          5.873          8.442         -145.7          85.13          136.1          72.68          152.0
     0.549              -34.26          10.63          9.099          42.89          5.864          8.443         -145.7          85.08          136.1           72.7          152.0
    0.5795              -34.26          10.63          9.105          42.89          5.854          8.445         -145.6          85.03          136.1          72.73          152.0
      0.61              -34.26          10.63          9.112          42.88          5.844          8.448         -145.6          84.97          136.0          72.76          152.0
    0.6405              -34.26          10.63          9.119          42.88          5.832           8.45         -145.6           84.9          136.0          72.79          152.0
     0.671              -34.27          10.63          9.128          42.87          5.819          8.453         -145.5          84.83          135.9          72.82          151.9
    0.7015              -34.27          10.63          9.137          42.86          5.805          8.456         -145.5          84.75          135.9          72.86          151.9
     0.732              -34.27          10.63          9.147          42.86          5.789          8.459         -145.4          84.66          135.8          72.91          151.9
    0.7625              -34.27          10.63          9.159          42.85          5.771          8.463         -145.4          84.56          135.8          72.95          151.9
    0.7931              -34.27          10.63          9.171          42.84          5.751          8.467         -145.3          84.45          135.7          73.01          151.9
    0.8236              -34.27          10.63          9.186          42.83          5.728          8.472         -145.2          84.33          135.6          73.07          151.9
    0.8541              -34.27          10.63          9.202          42.81          5.703          8.477         -145.1          84.19          135.5          73.14          151.8
    0.8846              -34.27          10.64          9.221           42.8          5.674          8.483         -145.0          84.02          135.4          73.22          151.8
    0.9151              -34.28          10.64          9.242          42.78          5.641           8.49         -144.9          83.84          135.3          73.31          151.8
    0.9456              -34.28          10.64          9.266          42.76          5.603          8.498         -144.8          83.63          135.2          73.41          151.7
    0.9761              -34.28          10.64          9.294          42.74          5.559          8.507         -144.7          83.39          135.0          73.53          151.7
     1.007              -34.28          10.64          9.327          42.72          5.509          8.517         -144.5          83.11          134.9          73.66          151.6
     1.037              -34.29          10.65          9.365          42.69          5.449           8.53         -144.3          82.78          134.6          73.83          151.6
     1.068              -34.29          10.65           9.41          42.65          5.379          8.544         -144.1          82.39          134.4          74.01          151.5
     1.098               -34.3          10.65          9.463          42.61          5.296          8.561         -143.8          81.93          134.1          74.24          151.4
     1.129               -34.3          10.66          9.527          42.56          5.196          8.582         -143.5          81.37          133.8          74.51          151.3
     1.159              -34.31          10.66          9.604           42.5          5.076          8.607         -143.1           80.7          133.3          74.84          151.2
      1.19              -34.32          10.67          9.699          42.43          4.929          8.638         -142.6          79.88          132.8          75.24          151.1
      1.22              -34.33          10.68          9.816          42.33          4.747          8.676         -142.0          78.87          132.2          75.73          150.9
     1.251              -34.34          10.69          9.961          42.22           4.52          8.723         -141.2          77.62          131.4          76.34          150.7
     1.281              -34.36          10.71          10.14          42.08          4.234          8.782         -140.3          76.03          130.4          77.12          150.4
     1.312              -34.38          10.72          10.38           41.9          3.871          8.857         -139.1          74.01          129.1           78.1          150.0
     1.342              -34.41          10.75          10.68          41.66          3.406          8.954         -137.6          71.43          127.5          79.36          149.6
     1.373              -34.44          10.78          11.06          41.37           2.81          9.078         -135.6          68.12          125.4          80.97          149.0
     1.403              -34.49          10.81          11.55          40.99          2.048          9.236         -133.1          63.89          122.8          83.04          148.3
     1.434              -34.54          10.86          12.16          40.51           1.09          9.435         -130.0          58.56          119.4          85.63          147.3
     1.464              -34.61          10.92          12.91          39.92       -0.07716          9.678         -126.1          52.08          115.4          88.79          146.2
     1.495              -34.69          10.99          13.78          39.25          -1.43          9.959         -121.7          44.56          110.7          92.46          144.9
     1.525              -34.78          11.06          14.72          38.51         -2.895          10.26         -116.8          36.43          105.6          96.43          143.4
     1.556              -34.87          11.13          15.66          37.78         -4.361          10.57         -112.0          28.29          100.4          100.4          142.0
     1.586              -34.95           11.2          16.53          37.11         -5.714          10.85         -107.6          20.77          95.73          104.1          140.7
     1.617              -35.01          11.25          17.27          36.52         -6.881          11.09         -103.7          14.29          91.66          107.2          139.5
